<svg id="visual" viewBox="0 0 900 600" width="900" height="600" xmlns="http://www.w3.org/2000/svg" xmlns:xlink="http://www.w3.org/1999/xlink" version="1.1"><rect width="900" height="600" fill="#cacaca"></rect><g><g transform="translate(678 377)"><path d="M63 -37.2C75.4 -14.9 74.9 14 62.2 31.3C49.6 48.6 24.8 54.2 1.3 53.5C-22.2 52.7 -44.4 45.6 -53 30.6C-61.6 15.6 -56.7 -7.1 -45.6 -28.6C-34.5 -50.2 -17.3 -70.4 4 -72.7C25.3 -75 50.6 -59.4 63 -37.2Z" fill="none" stroke="#c2c2c2" stroke-width="20"></path></g><g transform="translate(108 372)"><path d="M48.8 -28.4C58 -12.3 56.5 9.8 46.6 27C36.7 44.2 18.4 56.5 0.1 56.4C-18.2 56.4 -36.5 44 -48.3 25.7C-60.1 7.4 -65.5 -16.7 -56.3 -32.8C-47.2 -48.9 -23.6 -56.9 -1.9 -55.8C19.8 -54.7 39.6 -44.5 48.8 -28.4Z" fill="none" stroke="#c2c2c2" stroke-width="20"></path></g><g transform="translate(770 151)"><path d="M32.8 -17C40.3 -5.9 42.8 10.1 36.4 21.4C30.1 32.6 15.1 39.2 0.4 38.9C-14.2 38.7 -28.4 31.6 -33.3 21.2C-38.2 10.8 -33.7 -3 -26.6 -13.9C-19.5 -24.7 -9.7 -32.6 1.4 -33.4C12.6 -34.2 25.3 -28.1 32.8 -17Z" stroke="#c2c2c2" fill="none" stroke-width="20"></path></g><g transform="translate(305 239)"><path d="M29.4 -15.7C37.6 -2.9 43.2 12.7 37.9 23.1C32.6 33.6 16.3 39 1.2 38.3C-13.8 37.6 -27.7 30.8 -34.7 19.3C-41.8 7.8 -42 -8.3 -35.1 -20.4C-28.2 -32.5 -14.1 -40.7 -1.7 -39.7C10.6 -38.7 21.3 -28.5 29.4 -15.7Z" stroke="#c2c2c2" fill="none" stroke-width="20"></path></g><g transform="translate(478 134)"><path d="M49.5 -27.7C59.5 -11.4 59.6 11.5 49.7 30.8C39.8 50 19.9 65.5 1.3 64.8C-17.3 64 -34.5 46.9 -43 28.5C-51.4 10.2 -51.1 -9.6 -42.5 -25.2C-33.8 -40.8 -16.9 -52.3 1.4 -53.1C19.8 -53.9 39.6 -44.1 49.5 -27.7Z" stroke="#c2c2c2" fill="none" stroke-width="20"></path></g><g transform="translate(434 459)"><path d="M45.7 -27.4C56.5 -7.8 60.5 14.7 51.7 29.8C43 44.9 21.5 52.6 -0.2 52.8C-21.9 52.9 -43.8 45.4 -56 28.4C-68.1 11.3 -70.5 -15.4 -59.5 -35.1C-48.6 -54.9 -24.3 -67.8 -3.4 -65.8C17.5 -63.9 35 -47.1 45.7 -27.4Z" stroke="#c2c2c2" fill="none" stroke-width="20"></path></g><g transform="translate(99 96)"><path d="M25.6 -14.6C30.1 -6.9 28.7 4.4 23.4 14C18.1 23.7 9.1 31.6 -1.2 32.3C-11.4 33 -22.8 26.4 -27.2 17.3C-31.5 8.1 -28.8 -3.5 -23.1 -11.8C-17.4 -20.1 -8.7 -25.1 0.9 -25.6C10.5 -26.1 21.1 -22.2 25.6 -14.6Z" stroke="#c2c2c2" fill="none" stroke-width="20"></path></g></g></svg>