<?xml version="1.0" encoding="UTF-8" standalone="no"?>
<svg
   fill="currentColor"
   viewBox="0 0 24 24"
   version="1.1"
   id="svg1"
   sodipodi:docname="users.svg"
   inkscape:version="1.3.2 (091e20e, 2023-11-25)"
   xmlns:inkscape="http://www.inkscape.org/namespaces/inkscape"
   xmlns:sodipodi="http://sodipodi.sourceforge.net/DTD/sodipodi-0.dtd"
   xmlns="http://www.w3.org/2000/svg"
   xmlns:svg="http://www.w3.org/2000/svg">
  <defs
     id="defs1" />
  <sodipodi:namedview
     id="namedview1"
     pagecolor="#ffffff"
     bordercolor="#000000"
     borderopacity="0.25"
     inkscape:showpageshadow="2"
     inkscape:pageopacity="0.0"
     inkscape:pagecheckerboard="0"
     inkscape:deskcolor="#d1d1d1"
     inkscape:zoom="24.22208"
     inkscape:cx="12.013832"
     inkscape:cy="11.539058"
     inkscape:window-width="1512"
     inkscape:window-height="916"
     inkscape:window-x="0"
     inkscape:window-y="38"
     inkscape:window-maximized="1"
     inkscape:current-layer="svg1" />
  <path
     d="M 11,2 H 5 V 4 H 3 v 6 h 2 v 2 h 6 V 10 H 5 V 4 h 6 z m 0,2 h 2 v 6 H 11 Z M 0,16 h 2 v 4 h 12 v 2 H 0 Z m 2,0 H 14 V 14 H 2 Z m 14,0 h -2 v 6 h 2 z M 15,2 h 4 v 2 h -4 z m 4,8 h -4 v 2 h 4 z m 0,-6 h 2 v 6 h -2 z m 5,12 h -2 v 4 h -4 v 2 h 6 z m -6,-2 h 4 v 2 h -4 z"
     fill="currentColor"
     id="path1"
     style="stroke-width:1" />
</svg>
